<svg xmlns="http://www.w3.org/2000/svg" data-name="Layer 1" viewBox="0 0 72.89 101.0125" x="0px" y="0px"><title>194</title><g data-name="Layer1 0 FILL"><path d="M52,48.9q-3.8.55-3.8,2.55a3.47,3.47,0,0,0,2.6,3,8.47,8.47,0,0,0,3.5.45,6.49,6.49,0,0,0,3-1.65,3.59,3.59,0,0,0,1.5-3.2q-.25-1.8-1.3-2a6.53,6.53,0,0,0-2.7.2A1,1,0,0,1,56,48.8a2.15,2.15,0,0,1-.5,2,3,3,0,0,1-2,1.35A3.25,3.25,0,0,1,51,51q-1.4-1.25.9-2.15M44.6,42.45a1.32,1.32,0,0,0-1.25-.5q-.55.15-.8,1a4.11,4.11,0,0,0,0,2.1,3.87,3.87,0,0,0,1,1.8q.65.7,1.2.55t.85-1.1a4.07,4.07,0,0,0-.15-2,4.57,4.57,0,0,0-.9-1.85M43,43.3a1.18,1.18,0,0,1,.75-.6,1,1,0,0,1,.9.15,2,2,0,0,1,.65,1,1.7,1.7,0,0,1-.1,1.15.93.93,0,0,1-.65.7,1.33,1.33,0,0,1-1-.25,1.8,1.8,0,0,1-.55-1,1.85,1.85,0,0,1,0-1.2M60.2,39.4A1.5,1.5,0,0,0,59,38.9q-.55.15-.8,1.1a4,4,0,0,0,.15,2,4.12,4.12,0,0,0,.85,1.8q.75.75,1.3.55t.8-1.05a3.92,3.92,0,0,0,0-2,4.33,4.33,0,0,0-1-1.9m-1.2.4a1.23,1.23,0,0,1,1,.1,2.49,2.49,0,0,1,.6,1,1.9,1.9,0,0,1,0,1.15,1.42,1.42,0,0,1-.7.7,1,1,0,0,1-1-.3,1.59,1.59,0,0,1-.65-1,1.9,1.9,0,0,1,0-1.15A.93.93,0,0,1,59,39.8Z" transform="translate(-17.07 -11.3)"/></g><path d="M60.36,92.11a6,6,0,0,1-2.59-.42.49.49,0,0,1-.12-.09,3.84,3.84,0,0,1-.64-1,7.13,7.13,0,0,1-.5-2.48,13.83,13.83,0,0,1-6.2.91l-2.1-.51v1a.49.49,0,0,1,0,.16c-.44,1.29-2.06,2-4.93,2.24l-3.89,0c-3.29.29-5.16-.05-5.81-1.08a5.29,5.29,0,0,1-.73-3.53,13.6,13.6,0,0,1-3.13-.83c-2.57-1-3.82-2.19-3.82-3.67l.46-2.35a7.61,7.61,0,0,1,1.32-3,9.37,9.37,0,0,1-.93-2.94,10.13,10.13,0,0,1,.21-3.79,18.11,18.11,0,0,1,4.33-8.58,6.44,6.44,0,0,0,1.46-4.65h0l-.46-1.5C31,57.41,30.09,58,29.33,57.89h0a2.09,2.09,0,0,1-1.75-1.74,14,14,0,0,1-.29-4.94A24.58,24.58,0,0,1,22.1,49c-3.6-2-5.29-4.36-5-6.94a31.65,31.65,0,0,1,2.64-8.1c2.67-5.79,6.41-9.77,11.1-11.85a8.76,8.76,0,0,1,4.53-.84,23.67,23.67,0,0,1,3.67.36,5.87,5.87,0,0,1-1.92-2.55.5.5,0,0,1,.15-.54c1.06-.9,2.78-.9,5.25,0a20.55,20.55,0,0,1,2.36,1.07c-.18-3.28.2-5.57,1.15-7a2.48,2.48,0,0,1,2-1.32.5.5,0,0,1,.17,0c1.68.61,2.53,2.32,2.53,5.07q0,.77-.07,1.51a10,10,0,0,1,3.2-2.76,3.67,3.67,0,0,1,2.09-.5.5.5,0,0,1,.34.21A2.85,2.85,0,0,1,56.11,18a17.85,17.85,0,0,1,18.74,1.22C79,22,81.87,25,83.4,28.08a7.87,7.87,0,0,1,1.1,4c-.24,2.58-2.37,5.6-6.49,9.25a14.6,14.6,0,0,1,1.19,4.47,2.44,2.44,0,0,1-.64,2.18,1.92,1.92,0,0,1-1.79.21,4.66,4.66,0,0,1-1.63-1,28.63,28.63,0,0,1-1.41,9c-.31,1-.62,1.8-.93,2.54l5.08,10.39a10.42,10.42,0,0,0,1.75-3.2c1.18-3.13,1.35-5.57.52-7.26a.5.5,0,0,1,.34-.71c1.21-.28,2.61.29,4.28,1.71,2,1.65,2.94,4.06,2.79,7.18a1.75,1.75,0,0,0,.83-1.54.5.5,0,0,1,.43-.5.51.51,0,0,1,.55.35l.4,1.35a9.41,9.41,0,0,1,.06,3.33c-.58,3-2.8,5-6.62,5.89l1.87,1a.5.5,0,0,1,.16.14,1.17,1.17,0,0,1,.18,1.24c-.32.67-1.42,1.48-7,1.87A19.88,19.88,0,0,1,79,83.71a.49.49,0,0,1,0,.13c-.2,1.19-1.47,2.08-3.86,2.75l-3.1.54,0,1c-.25,1.18-1.19,2-2.81,2.46A19.34,19.34,0,0,1,65,91.69,33.13,33.13,0,0,1,60.36,92.11ZM58.3,90.84c.65.29,2.32.48,6.53-.14a18.48,18.48,0,0,0,4.07-1c1.29-.39,2-.94,2.16-1.65l0-1.35V83.24A7.17,7.17,0,0,1,72,78.51a.5.5,0,0,1,.88.48A6.33,6.33,0,0,0,72,82.43a25.86,25.86,0,0,0,3.51-3.7l.92-1.17A10,10,0,0,0,78,74.08a6.29,6.29,0,0,0-.69-3.89h0v0L72.22,59.77c-.36.51-.71.75-1.09.75h0c-.42,0-.77-.3-1-.87a6.16,6.16,0,0,1-.5-1.6c-3.16,4.15-5.44,6.12-7.14,6.15a1.74,1.74,0,0,1-1.6-1,.52.52,0,0,1,0-.11l0-.09a14.37,14.37,0,0,1-5.65,1.36l-3.39.13a2.37,2.37,0,0,1-.59,2.29c-.9.76-2.56.58-5.21-.56l-4.72-2.63a3.68,3.68,0,0,1,.55,2.4,1,1,0,0,1-1.14.76l-.13,0a10.89,10.89,0,0,1-3.32-2.08L33.57,67a5.08,5.08,0,0,0-.87.79,8.29,8.29,0,0,0,2.16-.21.5.5,0,0,1,.53.73l-1.7,3.1c-1.1,2.23-1.32,3.46-1.26,4.13l.42.07a3.78,3.78,0,0,0,2-1.55.5.5,0,0,1,.89.32l-.05,2.75c.08,1.54.43,2.59,1,3A1.13,1.13,0,0,0,37,80a1.65,1.65,0,0,0,.65-1.34.5.5,0,0,1,.93-.21l1.8,3a23,23,0,0,0,7.5,6l2.59.63a13.13,13.13,0,0,0,6.33-1.12c3.7-1.62,7.17-4.78,10.34-9.38a.5.5,0,0,1,.91.23l.19,1.72a43.25,43.25,0,0,0,1.67-5.92.5.5,0,0,1,.94-.11l1,2.15c.33.51.52.6.56.62a2,2,0,0,0,.24-.48,7.77,7.77,0,0,0-.42-2.07,15.34,15.34,0,0,0-3.1-5.17.5.5,0,0,1-.06-.58.5.5,0,0,1,.54-.23,6.84,6.84,0,0,0,2.78.29A20.21,20.21,0,0,0,68,64.74a.5.5,0,0,1,.46-.89,21.51,21.51,0,0,1,4.81,3.58.5.5,0,0,1,.13.19,1,1,0,0,1-.14,1c-.27.3-.79.56-2.47.32a15.67,15.67,0,0,1,2.42,4.44,8.31,8.31,0,0,1,.48,2.46.51.51,0,0,1,0,.16c-.09.28-.38,1.15-1.1,1.24s-1.21-.6-1.55-1.12l-.47-1c-1.43,5.79-2,5.89-2.41,6a.71.71,0,0,1-.72-.36.5.5,0,0,1-.08-.21l-.15-1.35a25.9,25.9,0,0,1-9.71,8.52,6.5,6.5,0,0,0,.42,2.48A3.28,3.28,0,0,0,58.3,90.84ZM33.85,86.91a4.75,4.75,0,0,0,.51,3.34c.21.32,1.07,1,5,.64l3.9,0c2.26-.17,3.65-.69,4-1.49V88.2A23.79,23.79,0,0,1,39.56,82l-1.23-2.08a2.2,2.2,0,0,1-.75.84,1.73,1.73,0,0,1-1,.38.51.51,0,0,1-.24-.06c-1-.56-1.54-1.86-1.65-4l0-1.46a3.32,3.32,0,0,1-1.76.93h-.15l-.85-.15a.5.5,0,0,1-.4-.36c-.3-1.1.12-2.79,1.28-5.15L34,68.7c-1.45.18-2.13,0-2.36-.49-.3-.68.46-1.39,1.33-2.06l3.46-2.24a16.24,16.24,0,0,1-2.91-4.37A8.1,8.1,0,0,1,32,62.76a17.18,17.18,0,0,0-4.11,8.16,9.14,9.14,0,0,0-.19,3.41,8.31,8.31,0,0,0,1,2.93h0a11.87,11.87,0,0,0,3.65,4l-.21-.55-.59-1.27a.5.5,0,0,1,.91-.42l.6,1.3a9.65,9.65,0,0,1,.64,2v0l.15,1.54a21.39,21.39,0,0,1,0,3Zm-5.68-8.55a8.12,8.12,0,0,0-.89,2.32l-.44,2.22c0,.9,1.08,1.82,3.19,2.64a12.6,12.6,0,0,0,2.85.76c0-.63,0-1.41,0-2.32l-.12-1.28A14.08,14.08,0,0,1,28.17,78.36ZM72.1,83.55v2.55l2.86-.5c1.83-.51,2.91-1.16,3.08-1.89a17.61,17.61,0,0,0-.77-4.06h0a4.71,4.71,0,0,0-.43-1l-.55.7C73.87,82.26,72.74,83.23,72.1,83.55Zm5.37-5.75A4.58,4.58,0,0,1,78.1,79c5.7-.37,6.36-1.16,6.43-1.31a.17.17,0,0,0,0-.14l-2.94-1.64a.5.5,0,0,1,.16-.93c4.24-.7,6.58-2.45,7.14-5.35a8.21,8.21,0,0,0,0-2.67,3.73,3.73,0,0,1-1.67,1.18.5.5,0,0,1-.68-.52c.35-3.25-.42-5.61-2.37-7.21a5.8,5.8,0,0,0-2.81-1.53c.63,1.88.38,4.36-.76,7.37A11,11,0,0,1,78.36,70,7.34,7.34,0,0,1,79,74.21,10.09,10.09,0,0,1,77.47,77.8ZM40,61.8a.49.49,0,0,1,.24.06l6.2,3.45c2.84,1.22,3.81,1,4.12.69s.31-1.22.15-1.88a.5.5,0,0,1,.47-.62l3.95-.15c2.7-.22,4.64-.75,5.72-1.55a.5.5,0,0,1,.78.27l.18.69a.73.73,0,0,0,.68.44c1,0,3.21-1.33,7.59-7.44a.5.5,0,0,1,.83.56A3,3,0,0,0,71,59.24a1,1,0,0,0,.17.28,5.52,5.52,0,0,0,.62-1c.33-.75.66-1.64,1-2.65a25.94,25.94,0,0,0,1.28-10,.5.5,0,0,1,.33-.52.5.5,0,0,1,.58.19,4.23,4.23,0,0,0,2.1,1.71,1.07,1.07,0,0,0,.87,0c.22-.17.31-.64.27-1.32a13.57,13.57,0,0,0-1.25-4.47h0a35.68,35.68,0,0,0-4.19-7,.5.5,0,0,1,.73-.68l2,1.85a2.45,2.45,0,0,0,1.72.56.93.93,0,0,0,.55-.48,6.23,6.23,0,0,0-.29-1.68,15.5,15.5,0,0,0-2.72-5.08A18.07,18.07,0,0,0,69,23.53a18.52,18.52,0,0,0-16.47-1.8l-.08,0a.51.51,0,0,1-.22,0,.5.5,0,0,1-.19-.1A.48.48,0,0,1,52,21.5a.5.5,0,0,1-.06-.16.48.48,0,0,1,0-.21.5.5,0,0,1,.1-.19l.06-.06,2.34-2.14c1.08-1.3,1.48-2.35,1.14-3.09a3.37,3.37,0,0,0-1.28.41,11.39,11.39,0,0,0-4.1,4.22.5.5,0,0,1-.91-.4,13.59,13.59,0,0,0,.43-3.47c0-2.26-.58-3.61-1.78-4.1-.41.05-.8.5-1.06.88-.9,1.33-1.2,3.78-.91,7.28a.5.5,0,0,1-.76.47,18.67,18.67,0,0,0-3-1.46c-1.82-.67-3.15-.8-4-.38.61,1.27,2.14,2.48,4.54,3.61h0l.1,0a.5.5,0,0,1-.17.94,21.42,21.42,0,0,0-8.21,2.84C29,29.76,26,34.79,25.55,41.48l-.25,3.06A1.94,1.94,0,0,0,25.88,46,1.31,1.31,0,0,0,27,46a5.86,5.86,0,0,0,1.41-2.24.5.5,0,0,1,1,.19l-1.1,7a14,14,0,0,0,.23,5,1.12,1.12,0,0,0,1,1c.13,0,.82,0,2.58-2.31a.5.5,0,0,1,.87.16l.75,2.49a16.35,16.35,0,0,0,3.91,6.38l0,0a10,10,0,0,0,3.16,2.09c.1-.22.1-.95-1.24-3.18A.5.5,0,0,1,40,61.8ZM34.72,22.23a7.62,7.62,0,0,0-3.45.77c-4.49,2-8.05,5.8-10.62,11.36a30.65,30.65,0,0,0-2.56,7.82c-.24,2.11,1.28,4.12,4.5,5.93a23.57,23.57,0,0,0,4.8,2.09l.6-3.85-.33.38a.5.5,0,0,1-.18.13,2.29,2.29,0,0,1-2.14,0,2.78,2.78,0,0,1-1-2.35l.25-3.13c.48-7,3.65-12.33,9.45-15.74A23.87,23.87,0,0,1,40.67,23a21,21,0,0,0-5.34-.77ZM75.6,36.72q1,1.64,2,3.62C81.29,37,83.29,34.18,83.5,32a7.08,7.08,0,0,0-1-3.43c-1.46-2.95-4.23-5.79-8.23-8.46a15.92,15.92,0,0,0-6.62-2.83,16.19,16.19,0,0,0-13,2.86,19.09,19.09,0,0,1,14.88,2.58,19,19,0,0,1,6,5.6,16.38,16.38,0,0,1,2.86,5.39,6.55,6.55,0,0,1,.32,2.12.5.5,0,0,1-.05.19,2,2,0,0,1-1.24,1.08A2.68,2.68,0,0,1,75.6,36.72Zm-22,18.68a10.77,10.77,0,0,1-3-.52,4,4,0,0,1-3-3.34c0-1.7,1.41-2.72,4.2-3.13l2.73-.65h.1a7,7,0,0,1,2.85-.19c.92.13,1.5.93,1.71,2.37a4.08,4.08,0,0,1-1.67,3.65,6.88,6.88,0,0,1-3.25,1.76A4.83,4.83,0,0,1,53.58,55.4Zm-3.53-5.52c-.93.38-1.4.9-1.4,1.57a3,3,0,0,0,2.24,2.47,8.09,8.09,0,0,0,3.28.43,6.06,6.06,0,0,0,2.75-1.54,3.1,3.1,0,0,0,1.33-2.76c-.13-.94-.42-1.45-.87-1.51a4.24,4.24,0,0,0-1-.05l0,.1A2.61,2.61,0,0,1,55.91,51a3.47,3.47,0,0,1-2.28,1.56,3.72,3.72,0,0,1-2.92-1.17A1.61,1.61,0,0,1,50,49.95Zm2-.5c-1,.38-1.07.69-1.08.75s.11.33.36.55a2.79,2.79,0,0,0,2.1.93,2.48,2.48,0,0,0,1.61-1.14c.43-.62.58-1.12.44-1.49-.08-.16-.21-.34-.67-.24h-.1ZM44.6,48a1.93,1.93,0,0,1-1.36-.74,4.33,4.33,0,0,1-1.11-2,4.63,4.63,0,0,1-.05-2.37A1.59,1.59,0,0,1,45,42.1a5.08,5.08,0,0,1,1,2.07,4.57,4.57,0,0,1,.15,2.3,1.8,1.8,0,0,1-1.22,1.47A1.22,1.22,0,0,1,44.6,48Zm-1.1-2a2.43,2.43,0,0,0,.44.56c.19.21.5.5.73.44s.42-.44.5-.74a2.18,2.18,0,0,0,0-.28,1.5,1.5,0,0,1-.47.23A1.75,1.75,0,0,1,43.5,46Zm.62-2.82-.18,0a.68.68,0,0,0-.46.38,1.44,1.44,0,0,0,0,.8,1.34,1.34,0,0,0,.4.72.81.81,0,0,0,.56.14c.09,0,.21-.1.28-.34a1.31,1.31,0,0,0,.1-.88,1.44,1.44,0,0,0-.48-.74A.43.43,0,0,0,44.12,43.15ZM50,46.8a.5.5,0,0,1-.27-.92l1.55-1a10.45,10.45,0,0,1,1.6-.75h0a3.12,3.12,0,0,1,1.46-.28.5.5,0,0,1,.45.54.51.51,0,0,1-.54.45,1.93,1.93,0,0,0-.85.15l-.24.44a4.94,4.94,0,0,1,2.22-.07.5.5,0,1,1-.26,1,4.22,4.22,0,0,0-1.86.11c-.45.12-.76.21-.92.28a.51.51,0,0,1-.56-.13.5.5,0,0,1-.06-.57l.18-.33-.09.05-1.52,1A.5.5,0,0,1,50,46.8ZM60.2,45a2.11,2.11,0,0,1-1.41-.75,4.55,4.55,0,0,1-1-2,4.53,4.53,0,0,1-.16-2.29c.22-.83.61-1.32,1.16-1.47a2,2,0,0,1,1.72.61,4.86,4.86,0,0,1,1.14,2.14,4.41,4.41,0,0,1,0,2.31,1.64,1.64,0,0,1-1.16,1.4A1.06,1.06,0,0,1,60.2,45Zm-.86-1.66a1.94,1.94,0,0,0,.17.22c.31.31.61.47.76.42s.39-.29.48-.69a2.84,2.84,0,0,0,.1-.78,1.8,1.8,0,0,1-.89.8A1.85,1.85,0,0,1,59.34,43.29Zm-.66-1.86a1.1,1.1,0,0,0,.45.66.6.6,0,0,0,.57.22,1.3,1.3,0,0,0,.35-.45,1.43,1.43,0,0,0,0-.8,2,2,0,0,0-.4-.74.7.7,0,0,0-.48-.05c-.28.06-.39.15-.46.32A1.39,1.39,0,0,0,58.69,41.43Z" transform="translate(-17.07 -11.3)"/></svg>