<svg xmlns="http://www.w3.org/2000/svg" xmlns:xlink="http://www.w3.org/1999/xlink" version="1.1" preserveAspectRatio="none" x="0px" y="0px" viewBox="0 0 100 125"><defs><g id="b"><path fill="#000000" stroke="none" d=" M 55.65 34.9 Q 55.45 35.15 55.45 35.5 55.45 35.85 55.65 36.05 55.9 36.3 56.25 36.3 56.6 36.3 56.8 36.05 57.05 35.85 57.05 35.5 57.05 35.15 56.8 34.9 56.6 34.7 56.25 34.7 55.9 34.7 55.65 34.9 M 34.9 39.3 Q 35.2 39.3 35.4 39.1 35.6 38.9 35.6 38.6 35.6 38.3 35.4 38.1 35.2 37.9 34.9 37.9 34.6 37.9 34.4 38.1 34.2 38.3 34.2 38.6 34.2 38.9 34.4 39.1 34.6 39.3 34.9 39.3 Z"/></g><path id="a" stroke="#000000" stroke-width="1" stroke-linejoin="round" stroke-linecap="round" fill="none" d=" M 28 31.45 Q 25.6 31.65 25.75 35.2 L 26.05 36.95 Q 26.5462890625 40.7212890625 30.35 40.25 30.30859375 40.103515625 30.275 39.95 28.3828125 31.4873046875 27.75 23 27.45 21.4 28.8 21.15 42.7 16.95 56.55 15.95 57.9 15.7 58.15 17.3 59.5 21.95 60.35 26.2 63.176953125 25.912109375 63.7 29.7 L 65.35 29.7 Q 65.8 31.2 65.35 31.45 L 64 31.45 64.15 32.3 Q 64.15 34.9927734375 61.725 35.2 61.978515625 37.598046875 62.15 40.05 62.35 41.7 61 41.95 54.95 43.9 48.7 45.1 L 48.5 46.15 Q 48.45 47.35 49.25 48.1 52.0828125 47.687890625 54.9 47.5 55.75 47.4 55.9 48.3 56.45 50.05 56.9 51.8 57.1 52.5 57.25 53.25 L 57.55 54.75 Q 59.454296875 56.074609375 60.45 55.45 60.5990234375 55.2853515625 60.75 55.2 61.3697265625 54.8484375 62 54.825 62.640234375 54.7974609375 64 55.275 65.36328125 55.76328125 65.9 56 L 69.7 58.15 Q 69.5 59 68.95 59.85 L 70.95 61.05 Q 73.45 60.1 76.55 61.1 79.126953125 62.326171875 79.125 62.825 79.123046875 63.323828125 77.05 65.35 71.8375 62.8853515625 72.35 65.475 72.86484375 68.0669921875 74.175 69 L 71.55 71.2 Q 69.633984375 69.2591796875 69.15 67.75 68.666015625 66.2408203125 69.1 63.8 67.55 62.55 67.6 62.7 M 57.05 35.5 Q 57.05 35.85 56.8 36.05 56.6 36.3 56.25 36.3 55.9 36.3 55.65 36.05 55.45 35.85 55.45 35.5 55.45 35.15 55.65 34.9 55.9 34.7 56.25 34.7 56.6 34.7 56.8 34.9 57.05 35.15 57.05 35.5 Z M 48.7 45.1 Q 46.7439453125 45.4912109375 44.8 45.825 45.6515625 47.53046875 45.05 48.825 47.155859375 48.399609375 49.25 48.1 M 63.7 29.7 L 64 31.45 M 60.35 26.2 Q 61.2041015625 30.60234375 61.725 35.2 M 26.8 52.2 Q 26.85 52.25 26.3 52.1 25.85 51.95 25.05 51.7 25.15 50.85 24.6 48.9 24.05 46.95 20.05 45.7 L 18.3 48.95 Q 21.25 50.3 21.35 51.1 22.25 54.35 17.05 53.2 15.95 56.95 16.05 56.95 16.1 56.95 19.1 57.3 22.6 57.65 24.3 54.95 L 26.6 55.3 Q 26.75 54.35 27.05 53.3 27.2 52.8 27.4 52.25 L 28.55 49.7 Q 28.9 49.75 29.3 49.9 29.4 49.95 29.55 50 29.95 50.15 30.6 50.45 30.7 50.5 30.8 50.6 31.2 50.8 31.8 51.15 32.35 51.45 33.05 51.9 34.5 52.75 35.25 53.4 36 54 36.05 55.3 36.45 55.55 36.75 55.9 37.4392578125 56.2 37.95 56.2 38.1654296875 56.2 38.325 56.25 37.92578125 53.9263671875 37.7 51.6 37.5 50.65 38.3 50.5 41.6783203125 49.5087890625 45.05 48.825 M 25.75 35.2 L 24.4 35.2 Q 23.95 35.45 24.4 36.95 L 26.05 36.95 M 35.6 38.6 Q 35.6 38.9 35.4 39.1 35.2 39.3 34.9 39.3 34.6 39.3 34.4 39.1 34.2 38.9 34.2 38.6 34.2 38.3 34.4 38.1 34.6 37.9 34.9 37.9 35.2 37.9 35.4 38.1 35.6 38.3 35.6 38.6 Z M 44.8 45.825 Q 39.019140625 46.776171875 33.3 47.15 31.95 47.4 31.7 45.75 30.95 43.0037109375 30.35 40.25 M 26.6 55.3 Q 26.45 56.35 26.55 57.2 L 30 57.75 Q 30.1 57.75 30.3 57.8 30.65 57.8 31.35 57.9 31.55 57.9 31.8 57.9 32.65 57.95 33.6 58 34.7162109375 58 35.05 57.65 35.0791015625 57.6279296875 35.1 57.6 L 35.975 55.5 36.05 55.3 M 35.05 57.65 Q 35.5205078125 57.6970703125 35.95 57.725 36.4146484375 57.7734375 36.825 57.8 38.0314453125 58.055859375 38.5 58.375 38.6447265625 58.4734375 38.75 58.5 38.614453125 57.866796875 38.5 57.225 38.4052734375 56.7365234375 38.325 56.25 M 35.975 55.5 Q 36.380859375 55.7359375 36.75 55.9 M 68.95 59.85 Q 68.45 60.7 67.75 61.6 67.5 62 67.1 62.45 L 65.05 64.4 Q 64.7 64.15 64.25 63.75 63.85 63.45 63.5 63 62.4931640625 61.8453125 61.275 60.425 60.0599609375 59.006640625 59.8 58.3 58.5658203125 57.208203125 57.975 57.1 58.3474609375 59.506640625 58.55 61.7 58.7 62.7 57.9 62.8 L 56.3 63.25 56.5 64.85 Q 56.7947265625 66.5693359375 57.225 67.125 58.23671875 66.9892578125 58.45 67.025 58.88828125 67.1 60.4 70.55 62.2 74.9 62.15 78.7 62.15 80.05 61.85 81.4 60.24453125 82 57.925 82.55 55.61640625 83.1 52.1 81.9 51.9 80.75 51.85 79.45 51.7 78.1 51.75 76.55 51.85 70.6 54.1 67.65 54.690625 67.544140625 55.2 67.45 55.349609375 66.7978515625 55.2 65.95 55.0509765625 65.1060546875 54.65 63.75 L 54.65 63.725 Q 50.2373046875 64.8328125 44.6 65.55 43.999609375 67.34140625 44.6 68.275 45.932421875 68.1947265625 45.95 68.3 46.092578125 68.6689453125 47.5 71.35 49.3 75.7 49.25 79.5 49.25 80.85 48.95 82.2 47.35 82.8 45.3 83.15 41.25 83.9 39.2 82.7 39.0046875 81.551953125 38.925 80.25 38.8244140625 78.8845703125 38.85 77.35 38.95 71.4 41.2 68.45 L 42.55 68.45 Q 42.9828125 67.8216796875 42.675 65.7 42.1150390625 65.7478515625 41.3 65.8 40.5 65.95 40.35 64.95 39.382421875 61.733203125 38.75 58.5 M 60.75 55.2 L 60.4 55.55 Q 60.0189453125 56.06875 59.725 57.275 59.7146484375 57.3365234375 59.7 57.4 59.5369140625 57.5912109375 59.8 58.3 M 57.55 54.75 Q 57.7775390625 55.9529296875 57.975 57.1 M 42.675 65.7 Q 43.3822265625 65.64609375 43.7 65.7 L 44.6 65.55 M 44.6 68.275 L 44.6 68.3 Q 44.5494140625 68.2927734375 44.5 68.3 44.3087890625 68.3080078125 44.1 68.325 L 44.075 68.375 42.55 68.45 Q 43.8482421875 68.2275390625 44.5 68.3 44.5478515625 68.2814453125 44.6 68.275 Z M 42.55 68.45 Q 43.445703125 68.3654296875 44.1 68.325 M 55.2 67.45 Q 56.453515625 67.23828125 57.225 67.125 M 56.3 63.25 L 54.65 63.75 M 62.15 78.7 Q 56.8037109375 80.056640625 51.85 79.45 M 49.25 79.5 Q 44.5677734375 81.02734375 38.925 80.25 M 39.75 41.4 Q 48.1966796875 42.7103515625 53.3 38.95"/></defs><g transform="matrix( 1, 0, 0, 1, 0,0) "><use xlink:href="#b"/><use xlink:href="#a"/></g></svg>